<?xml version="1.0" encoding="utf-8"?>
<!-- Generator: Adobe Illustrator 16.0.0, SVG Export Plug-In . SVG Version: 6.00 Build 0)  -->
<!DOCTYPE svg PUBLIC "-//W3C//DTD SVG 1.1//EN" "http://www.w3.org/Graphics/SVG/1.1/DTD/svg11.dtd">
<svg version="1.1" xmlns="http://www.w3.org/2000/svg" xmlns:xlink="http://www.w3.org/1999/xlink" x="0px" y="0px"
	 width="78.499px" height="18.5px" viewBox="-16.167 0 78.499 18.5" enable-background="new -16.167 0 78.499 18.5"
	 xml:space="preserve">
<g id="Layer_2">
	<polygon fill="#FFFFFF" points="60.333,13.41 54.318,14.561 50.349,14.561 43.566,14.561 44.589,15.457 43.566,16.736 
		38.062,16.736 36.143,15.842 32.687,16.736 27.824,16.736 18.608,16.736 17.712,15.586 2.482,16.098 -2.766,15.074 -10.061,14.178 
		-14.668,13.41 -3.917,12.385 -0.333,11.361 3.506,11.361 5.554,13.41 8.498,12.641 12.209,12.385 13.361,11.361 18.225,11.361 
		18.608,9.953 20.784,8.418 24.112,8.418 24.88,6.498 26.544,5.603 27.952,5.603 28.976,3.299 30.511,2.531 33.583,1.763 
		36.911,2.531 37.935,4.322 40.75,4.322 43.31,5.346 44.845,7.394 45.871,10.466 47.917,10.594 49.965,11.105 51.246,12.385 
		52.654,11.617 54.445,11.617 55.725,12.514 58.541,12.129 	"/>
</g>
<g id="Layer_1">
</g>
</svg>
