<?xml version="1.0" encoding="utf-8"?>
<!-- Generator: Adobe Illustrator 16.0.0, SVG Export Plug-In . SVG Version: 6.00 Build 0)  -->
<!DOCTYPE svg PUBLIC "-//W3C//DTD SVG 1.1//EN" "http://www.w3.org/Graphics/SVG/1.1/DTD/svg11.dtd">
<svg version="1.1" id="Layer_1" xmlns="http://www.w3.org/2000/svg" xmlns:xlink="http://www.w3.org/1999/xlink" x="0px" y="0px"
	 width="103.125px" height="27.25px" viewBox="-30.375 0 103.125 27.25" enable-background="new -30.375 0 103.125 27.25"
	 xml:space="preserve">
<polygon fill="#FFFFFF" points="-28.584,21 -25.584,19 -18.584,19 -19.709,17.75 -16.959,16.625 -13.334,16.625 -11.834,15.125 
	-9.334,14.25 -6.209,15 -5.084,17 -2.834,16.25 3.166,16.375 5.666,14.875 3.666,14.25 2.166,13.25 3.041,11.875 7.166,11.125 
	7.916,9.75 8.916,8.625 10.416,8.625 10.416,6.875 11.166,5 13.666,4 16.041,5 17.166,3.125 19.041,1.875 22.291,1.875 
	24.541,1.875 25.791,3.75 27.291,3.375 29.041,4.625 30.666,6.25 30.666,8 30.666,10.75 32.916,9.5 35.291,9.375 36.791,9.875 
	37.916,8.625 40.791,8.375 41.916,10.375 41.916,13.875 42.666,14 44.791,12.875 47.666,13.125 48.541,14.25 48.541,15.625 
	50.916,16.375 53.666,15.75 57.916,16.25 60.166,17.75 63.041,16.875 66.416,17.875 69.416,17.125 70.916,17.5 65.666,19.625 
	59.666,19.625 54.416,20 52.291,19.5 49.916,21 45.541,21 42.166,19.375 37.916,19.625 32.916,19.25 30.791,19.875 31.291,21 
	35.416,21 36.791,21.75 35.666,22.875 30.041,22.875 27.041,22.875 26.166,23.875 22.666,23.875 20.416,23.125 17.541,23.25 
	14.666,24.5 10.916,25.375 6.791,25.375 3.291,24.375 -0.709,23.5 -3.959,22.5 -7.584,21.75 -10.959,22.125 -15.709,21.5 
	-20.459,21.125 -23.834,22 -26.834,21.375 "/>
</svg>
