<?xml version="1.0" encoding="utf-8"?>
<!-- Generator: Adobe Illustrator 16.0.0, SVG Export Plug-In . SVG Version: 6.00 Build 0)  -->
<!DOCTYPE svg PUBLIC "-//W3C//DTD SVG 1.1//EN" "http://www.w3.org/Graphics/SVG/1.1/DTD/svg11.dtd">
<svg version="1.1" id="Layer_1" xmlns="http://www.w3.org/2000/svg" xmlns:xlink="http://www.w3.org/1999/xlink" x="0px" y="0px"
	 width="84.625px" height="28.955px" viewBox="0 0 84.625 28.955" enable-background="new 0 0 84.625 28.955" xml:space="preserve">
<polygon fill="#FFFFFF" points="1.104,19.517 2.616,20.726 5.942,20.726 9.722,21.783 12.292,20.348 15.618,20.348 18.491,20.726 
	22.573,22.539 27.26,22.539 29.377,23.9 26.865,24.9 23.934,23.9 22.725,25.261 25.295,26.018 30.889,26.018 35.576,26.018 
	40.565,26.018 44.646,26.924 48.427,26.924 52.509,25.865 57.196,25.865 59.464,24.656 60.824,24.656 62.64,25.11 64.453,26.924 
	67.326,26.924 70.199,26.018 75.339,26.924 78.666,26.924 82.294,26.924 83.654,25.715 81.387,24.202 77.456,24.656 74.281,23.22 
	71.257,21.783 67.326,20.726 65.662,21.633 64.453,20.348 61.127,19.517 57.802,20.348 55.382,21.481 53.567,21.481 51.754,20.726 
	48.578,20.726 47.671,18.76 52.207,18.76 54.626,16.189 55.685,14.073 55.382,11.049 53.567,10.293 52.358,8.781 49.788,7.723 
	47.521,7.723 45.856,9.537 45.856,7.723 44.95,5.909 42.984,5.909 41.624,3.214 38.297,1.978 35.273,3.214 32.552,4.246 
	31.796,7.118 31.796,9.083 30.133,7.874 28.772,8.63 27.714,10.897 27.562,11.957 26.202,12.107 25.295,12.863 24.388,13.771 
	20.91,14.451 19.549,15.888 16.526,16.189 13.502,17.398 10.932,17.551 7.152,18.608 4.431,18.608 "/>
</svg>
