<?xml version="1.0" encoding="iso-8859-1"?>
<!-- Generator: Adobe Illustrator 18.1.1, SVG Export Plug-In . SVG Version: 6.00 Build 0)  -->
<svg version="1.1" id="Capa_1" xmlns="http://www.w3.org/2000/svg" xmlns:xlink="http://www.w3.org/1999/xlink" x="0px" y="0px"
	 viewBox="0 0 497.876 497.876" style="enable-background:new 0 0 497.876 497.876;" xml:space="preserve">
<g>
	<g>
		<path style="fill:#010002;" d="M495.065,339.542c-8.958-35.416-18.143-75.758-18.143-92.121c0-16.151,8.95-54.876,17.793-89.187
			c8.966-34.782-2.512-41.244-26.767-14.753l-58.014,63.378c-0.268,0.293-0.488,0.602-0.74,0.894h-13.94v-29.661
			c0-6.739-5.462-12.193-12.193-12.193c-6.73,0-12.193,5.454-12.193,12.193v29.661h-25.41v-62.175
			c0-6.739-5.462-12.193-12.193-12.193c-6.73,0-12.193,5.454-12.193,12.193v62.175H298.72v-78.173
			c0-6.739-5.462-12.193-12.193-12.193c-6.73,0-12.193,5.454-12.193,12.193v78.173H251.98v-62.175
			c0-6.739-5.462-12.193-12.193-12.193s-12.193,5.454-12.193,12.193v62.175h-19.305v-30.482c0-6.739-5.462-12.193-12.193-12.193
			s-12.193,5.454-12.193,12.193v30.482h-18.094l-0.691-75.417c-0.431-46.536-27.206-57.835-59.81-25.231l-81.172,81.172
			c-32.604,32.604-32.116,85.96,1.097,119.173l82.684,82.684c33.213,33.213,59.786,22.41,59.355-24.134l-0.699-75.88h17.33v30.482
			c0,6.739,5.462,12.193,12.193,12.193s12.193-5.454,12.193-12.193V290.12h19.305v62.996c0,6.739,5.462,12.193,12.193,12.193
			s12.193-5.454,12.193-12.193V290.12h22.354v83.472c0,6.739,5.462,12.193,12.193,12.193c6.73,0,12.193-5.454,12.193-12.193V290.12
			h22.354v62.996c0,6.739,5.462,12.193,12.193,12.193c6.73,0,12.193-5.454,12.193-12.193V290.12h25.402v30.482
			c0,6.739,5.462,12.193,12.193,12.193c6.73,0,12.193-5.454,12.193-12.193V290.12h7.779c2.487,3.885,5.365,7.576,8.706,10.957
			l54.405,55.039C491.383,381.656,503.869,374.365,495.065,339.542z M61.975,200.706c0-18.517,15.013-33.53,33.53-33.53
			s33.53,15.013,33.53,33.53c0,2.422-0.285,4.771-0.772,7.047c-2.869,13.396-13.754,23.727-27.385,25.938
			c-1.764,0.285-3.536,0.545-5.373,0.545C76.988,234.236,61.975,219.223,61.975,200.706z"/>
	</g>
</g>
<g>
</g>
<g>
</g>
<g>
</g>
<g>
</g>
<g>
</g>
<g>
</g>
<g>
</g>
<g>
</g>
<g>
</g>
<g>
</g>
<g>
</g>
<g>
</g>
<g>
</g>
<g>
</g>
<g>
</g>
</svg>
