<?xml version="1.0" encoding="utf-8"?>
<!-- Generator: Adobe Illustrator 16.0.0, SVG Export Plug-In . SVG Version: 6.00 Build 0)  -->
<!DOCTYPE svg PUBLIC "-//W3C//DTD SVG 1.1//EN" "http://www.w3.org/Graphics/SVG/1.1/DTD/svg11.dtd">
<svg version="1.1" id="Layer_1" xmlns="http://www.w3.org/2000/svg" xmlns:xlink="http://www.w3.org/1999/xlink" x="0px" y="0px"
	 width="612px" height="26.479px" viewBox="0 0 612 26.479" enable-background="new 0 0 612 26.479" xml:space="preserve">
<path fill="#2AAEE4" d="M0,26.479h612V6.895c-0.444,0.021-0.896,0.03-1.355,0.024c-6.754-0.083-10.831-2.356-10.831-2.356
	s-7.17,4.335-13.839,4.353c-6.447,0.017-10.974-3.353-10.974-3.353s-7.498,3.335-13.981,3.353
	c-5.852,0.017-10.758-3.353-10.758-3.353s-6.926,4.373-13.89,4.356c-6.601-0.019-10.924-3.356-10.924-3.356
	s-8.563,4.335-14.056,4.353c-4.932,0.017-10.755-3.353-10.755-3.353s-5.932,2.526-13.735,2.356
	c-6.543-0.147-11.719-2.356-11.719-2.356s-6.871,3.339-12.74,3.353c-6.789,0.017-12.081-3.353-12.081-3.353
	s-4.338,3.187-12.139,3.356c-7.81,0.124-12.64-3.356-12.64-3.356s-5.561,3.708-12.667,3.356c-7.104-0.355-10.28-3.356-10.28-3.356
	V7.56c0,0-7.25,3.526-12.393,3.36c-6.367-0.188-11.826-2.356-11.826-2.356s-7.257,2.428-12.878,2.356
	c-6.168-0.083-12.726-3.356-12.726-3.356c0.051-0.032-2.864,3.476-12.738,3.356c-6.756-0.083-10.621-2.969-10.621-2.969V7.564
	c0,0-7.875,3.339-13.747,3.353c-6.783,0.017-11.073-4.353-11.073-4.353s-5.342,4.187-13.146,4.356
	c-7.808,0.124-12.638-3.356-12.638-3.356s-6.562,3.708-13.664,3.356c-7.105-0.355-10.284-4.356-10.284-4.356
	s-4.961,3.479-12.45,3.353c-7.492-0.126-11.002-2.353-11.002-2.353s-6.722,3.563-13.094,3.356
	c-6.366-0.188-11.825-4.356-11.825-4.356s-7.255,3.428-12.878,3.356c-6.166-0.083-11.724-2.356-11.724-2.356
	s-5.48,3.444-12.741,3.356c-6.753-0.083-11.831-3.356-11.831-3.356s-6.17,3.335-12.839,3.353
	c-6.447,0.017-11.974-3.353-11.974-3.353s-6.498,3.335-12.981,3.353c-5.852,0.017-11.759-4.353-11.759-4.353
	s-5.925,4.373-12.889,4.356c-6.601-0.019-11.924-3.356-11.924-3.356s-7.563,3.335-13.055,3.353
	c-4.932,0.017-11.755-4.353-11.755-4.353s-4.932,4.526-12.735,4.356c-6.543-0.147-11.719-4.356-11.719-4.356
	s-6.871,4.339-12.739,4.353c-6.79,0.017-12.082-5.353-12.082-5.353S5.751,9.316,0,10.537V26.479z"/>
</svg>
